<?xml version="1.0" encoding="UTF-8"?>
<svg version="1.1" xmlns="http://www.w3.org/2000/svg" width="336" height="204">
<path d="M0 0 C2.66551424 2.40817141 4.30171694 4.99238148 6.08203125 8.1015625 C6.97450562 9.65351318 6.97450562 9.65351318 7.88500977 11.23681641 C8.52108154 12.35491699 9.15715332 13.47301758 9.8125 14.625 C10.48399812 15.79753256 11.15579645 16.96989324 11.82788086 18.14208984 C16.88270895 26.97390207 21.84882496 35.85501306 26.80029297 44.74511719 C30.76131864 51.83959113 34.82048417 58.87006622 38.9375 65.875 C44.59671561 75.50392353 50.04634395 85.23658168 55.43164062 95.02099609 C60.14815571 103.55759083 65.05552382 111.96532836 70.14086914 120.28759766 C70.64996826 121.13112793 71.15906738 121.9746582 71.68359375 122.84375 C72.13275146 123.57787109 72.58190918 124.31199219 73.04467773 125.06835938 C74 127 74 127 74 130 C69.26805461 130.22334904 64.53920256 130.38615853 59.80322266 130.49438477 C58.19460603 130.53950884 56.58635586 130.60083129 54.97900391 130.67895508 C41.76534712 131.30486514 41.76534712 131.30486514 37.83886719 128.40258789 C36.22138138 126.0200237 35.13972265 123.64394283 34 121 C32.77982859 118.94278899 31.53894467 116.89776878 30.28125 114.86328125 C29.01682029 112.68200884 27.75645758 110.49837424 26.5 108.3125 C25.51386719 106.66024414 25.51386719 106.66024414 24.5078125 104.97460938 C23.89679688 103.90662109 23.28578125 102.83863281 22.65625 101.73828125 C22.09744141 100.77962158 21.53863281 99.82096191 20.96289062 98.83325195 C19.70962093 95.14557579 20.39584207 93.48421897 22 90 C24.125 87.125 24.125 87.125 26 85 C30.79584116 92.65410752 35.44694384 100.38659219 40 108.1875 C40.73923706 109.44397339 40.73923706 109.44397339 41.4934082 110.72583008 C41.9493335 111.51111084 42.40525879 112.2963916 42.875 113.10546875 C43.28492188 113.80824951 43.69484375 114.51103027 44.1171875 115.23510742 C45 117 45 117 45 119 C48.63 118.67 52.26 118.34 56 118 C55.27296875 116.72769531 54.5459375 115.45539063 53.796875 114.14453125 C47.4453125 103.02929688 47.4453125 103.02929688 41.09375 91.9140625 C40.62630371 91.09607178 40.15885742 90.27808105 39.67724609 89.43530273 C38.71128608 87.7447901 37.74546989 86.05419529 36.77978516 84.36352539 C33.91645555 79.351091 31.04971378 74.34063465 28.1796875 69.33203125 C19.36229435 53.93800987 10.63571046 38.49684785 2 23 C1.01 23 0.02 23 -1 23 C-1.25990723 23.48017578 -1.51981445 23.96035156 -1.78759766 24.45507812 C-7.36438634 34.73358071 -13.07539763 44.91759632 -19 55 C-23.77939181 63.13649986 -28.42959845 71.32581902 -32.94604492 79.61083984 C-36.33592271 85.82030053 -39.80245155 91.98268798 -43.3125 98.125 C-43.79219238 98.96571045 -44.27188477 99.8064209 -44.76611328 100.67260742 C-48.10194325 106.49442221 -51.52874692 112.25799742 -55 118 C-51.7 118 -48.4 118 -45 118 C-44.68417969 116.71222656 -44.36835937 115.42445313 -44.04296875 114.09765625 C-42.12299243 108.37766735 -40.12983647 103.47795256 -35 100 C-27.51534983 98.42478663 -19.97970243 98.74095215 -12.3815918 99.23266602 C-11.61137695 99.2695755 -10.84116211 99.30648499 -10.04760742 99.34451294 C-8.57769823 99.42296248 -7.10925953 99.54378338 -5.64697266 99.71261597 C-3.33319036 99.93840074 -3.33319036 99.93840074 0 99 C1.65 96.03 3.3 93.06 5 90 C-5.89 90 -16.78 90 -28 90 C-26.60208902 85.80626705 -25.502801 82.81894769 -23.3828125 79.12109375 C-22.86356201 78.2091626 -22.34431152 77.29723145 -21.80932617 76.35766602 C-21.25349854 75.39401123 -20.6976709 74.43035645 -20.125 73.4375 C-19.26902222 71.93884399 -19.26902222 71.93884399 -18.39575195 70.40991211 C-17.20347506 68.32371458 -16.00885839 66.23885266 -14.81201172 64.15527344 C-13.026809 61.04668277 -11.24855305 57.93422738 -9.47265625 54.8203125 C-6.65322147 49.87746263 -3.82864088 44.93758665 -1 40 C-0.34 40 0.32 40 1 40 C1.43344727 40.78125244 1.86689453 41.56250488 2.31347656 42.36743164 C3.93828866 45.29552366 5.56349692 48.22339508 7.18896484 51.15112305 C7.88931645 52.41275505 8.58951493 53.67447207 9.28955078 54.9362793 C10.30199534 56.76113479 11.31505105 58.5856501 12.328125 60.41015625 C12.96685547 61.5614502 13.60558594 62.71274414 14.26367188 63.89892578 C15.6445462 66.36516111 17.05181193 68.80985223 18.484375 71.24609375 C20 74 20 74 20 76 C16.07730584 76.84366768 12.88240803 77.12452448 9 76 C5.54710348 72.02084553 3.26892989 67.73289673 1 63 C-3.47740875 67.99403284 -5.57910642 72.72836177 -9 79 C6.84 79.495 6.84 79.495 23 80 C18.40382299 89.55283849 13.51415546 98.83264356 8.1875 108 C7.62458252 108.98564941 7.06166504 109.97129883 6.48168945 110.98681641 C5.67671021 112.35459229 5.67671021 112.35459229 4.85546875 113.75 C4.13846802 114.97976562 4.13846802 114.97976562 3.40698242 116.234375 C2.94267822 116.81703125 2.47837402 117.3996875 2 118 C1.01 118 0.02 118 -1 118 C-1.41765625 116.86433594 -1.8353125 115.72867188 -2.265625 114.55859375 C-3.2993669 112.55084199 -3.2993669 112.55084199 -5 111 C-8.9004673 109.94675127 -12.72892952 110.02107079 -16.75 110.0625 C-17.82894531 110.04638672 -18.90789062 110.03027344 -20.01953125 110.01367188 C-22.68097393 109.97834299 -25.33855261 109.97493391 -28 110 C-28.29060303 110.75249023 -28.58120605 111.50498047 -28.88061523 112.28027344 C-29.7847075 114.47691199 -30.73073186 116.46305044 -31.91015625 118.515625 C-32.43512695 119.43214844 -32.43512695 119.43214844 -32.97070312 120.3671875 C-33.33099609 120.98851562 -33.69128906 121.60984375 -34.0625 122.25 C-34.60874023 123.20519531 -34.60874023 123.20519531 -35.16601562 124.1796875 C-37.85925752 128.85925752 -37.85925752 128.85925752 -39 130 C-41.52094076 130.08847743 -44.01430893 130.11527301 -46.53515625 130.09765625 C-47.66503212 130.09553383 -47.66503212 130.09553383 -48.81773376 130.09336853 C-51.2326956 130.08775376 -53.64756601 130.07519883 -56.0625 130.0625 C-57.69596221 130.0574869 -59.32942586 130.05292366 -60.96289062 130.04882812 C-64.97529585 130.03777954 -68.98763241 130.02050506 -73 130 C-72.31484846 126.40759817 -70.82333746 123.6209921 -69.04296875 120.44140625 C-68.43138916 119.34449463 -67.81980957 118.24758301 -67.18969727 117.11743164 C-66.52248056 115.93235172 -65.85507684 114.74737708 -65.1875 113.5625 C-64.49962701 112.33406624 -63.81204877 111.10546739 -63.12475586 109.87670898 C-57.68540099 100.16543671 -52.17677796 90.4938736 -46.63232422 80.84228516 C-43.45779154 75.31462894 -40.29031726 69.78293659 -37.125 64.25 C-36.61765823 63.36350769 -36.61765823 63.36350769 -36.10006714 62.45910645 C-31.22507956 53.9377926 -26.40645552 45.3867568 -21.625 36.8125 C-14.68510661 24.37490829 -7.5924201 12.05180561 0 0 Z " fill="#CD2939" transform="translate(172,25)"/>
<path d="M0 0 C14 0 14 0 17.8125 1.4375 C20.51368168 4.6017414 20.96839407 6.80332542 21.1953125 10.89453125 C20.94108978 13.63505215 19.67930584 14.88261437 18 17 C18.61598022 20.01604708 18.61598022 20.01604708 20 23 C20.37125 23.94875 20.7425 24.8975 21.125 25.875 C21.41375 26.57625 21.7025 27.2775 22 28 C18.75 28.375 18.75 28.375 15 28 C11 23.28205128 11 23.28205128 11 20 C9.68 19.67 8.36 19.34 7 19 C7 21.97 7 24.94 7 28 C4.69 28 2.38 28 0 28 C0 18.76 0 9.52 0 0 Z M7 7 C7 8.98 7 10.96 7 13 C8.98 13 10.96 13 13 13 C13.38218767 11.34385343 13.71395102 9.67542976 14 8 C12.87465895 6.64381501 12.87465895 6.64381501 9.9375 6.9375 C8.968125 6.958125 7.99875 6.97875 7 7 Z " fill="#EB394B" transform="translate(163,174)"/>
<path d="M0 0 C2.31 0 4.62 0 7 0 C16 20.47131148 16 20.47131148 16 28 C13.69 28 11.38 28 9 28 C8.67 26.68 8.34 25.36 8 24 C4.04 24.495 4.04 24.495 0 25 C-0.33 25.99 -0.66 26.98 -1 28 C-3.64 28 -6.28 28 -9 28 C-6.90245907 18.2850736 -3.61755059 9.22533938 0 0 Z M3 12 C2.67 13.65 2.34 15.3 2 17 C2.99 17 3.98 17 5 17 C4.67 15.35 4.34 13.7 4 12 C3.67 12 3.34 12 3 12 Z " fill="#EB3C4E" transform="translate(143,174)"/>
<path d="M0 0 C13 0 13 0 18 3 C20.37040308 5.37040308 20.34465793 6.06302753 20.4375 9.3125 C20.34454383 12.92036116 20.07082966 13.89697503 17.9375 17 C14.5347378 19.31677426 12.073417 19.76038724 8 20 C7.67 22.64 7.34 25.28 7 28 C4.69 28 2.38 28 0 28 C0 18.76 0 9.52 0 0 Z M7 7 C7 8.98 7 10.96 7 13 C9.41645782 13.16687448 9.41645782 13.16687448 12 13 C12.66 12.34 13.32 11.68 14 11 C13.6814823 8.89179203 13.6814823 8.89179203 13 7 C11.02 7 9.04 7 7 7 Z " fill="#EB374A" transform="translate(190,174)"/>
</svg>
